HIERARCHY
ROOT root
{
	OFFSET 0.000000 0.000000 0.000000
	CHANNELS 6 Xposition Yposition Zposition Zrotation Yrotation Xrotation
	JOINT lhip
	{
		OFFSET 0.058581 -0.082280 -0.017664
		CHANNELS 3 Zrotation Yrotation Xrotation
		JOINT lknee
		{
			OFFSET 0.043451 -0.386469 0.008037
			CHANNELS 3 Zrotation Yrotation Xrotation
			JOINT lankle
			{
				OFFSET -0.014790 -0.426874 -0.037428
				CHANNELS 3 Zrotation Yrotation Xrotation
				JOINT ltoe
				{
					OFFSET 0.041054 -0.060286 0.122042
					CHANNELS 3 Zrotation Yrotation Xrotation
					End Site
					{
						OFFSET 0.000000 0.000000 0.000000
					}
				}
			}
		}
	}
	JOINT rhip
	{
		OFFSET -0.060310 -0.090513 -0.013543
		CHANNELS 3 Zrotation Yrotation Xrotation
		JOINT rknee
		{
			OFFSET -0.043257 -0.383688 -0.004843
			CHANNELS 3 Zrotation Yrotation Xrotation
			JOINT rankle
			{
				OFFSET 0.019056 -0.420046 -0.034562
				CHANNELS 3 Zrotation Yrotation Xrotation
				JOINT rtoe
				{
					OFFSET -0.034840 -0.062106 0.130323
					CHANNELS 3 Zrotation Yrotation Xrotation
					End Site
					{
						OFFSET 0.000000 0.000000 0.000000
					}
				}
			}
		}
	}
	JOINT lowerback
	{
		OFFSET 0.004439 0.124404 -0.038385
		CHANNELS 3 Zrotation Yrotation Xrotation
		JOINT upperback
		{
			OFFSET 0.004488 0.137956 0.026820
			CHANNELS 3 Zrotation Yrotation Xrotation
			JOINT chest
			{
				OFFSET -0.002265 0.056032 0.002855
				CHANNELS 3 Zrotation Yrotation Xrotation
				JOINT lowerneck
				{
					OFFSET -0.013390 0.211636 -0.033468
					CHANNELS 3 Zrotation Yrotation Xrotation
					JOINT upperneck
					{
						OFFSET 0.010113 0.088937 0.050410
						CHANNELS 3 Zrotation Yrotation Xrotation
						End Site
						{
							OFFSET 0.000000 0.000000 0.000000
						}
					}
				}
				JOINT lclavicle
				{
					OFFSET 0.071702 0.114000 -0.018898
					CHANNELS 3 Zrotation Yrotation Xrotation
					JOINT lshoulder
					{
						OFFSET 0.122921 0.045205 -0.019046
						CHANNELS 3 Zrotation Yrotation Xrotation
						JOINT lelbow
						{
							OFFSET 0.255332 -0.015649 -0.022946
							CHANNELS 3 Zrotation Yrotation Xrotation
							JOINT lwrist
							{
								OFFSET 0.265709 0.012698 -0.007375
								CHANNELS 3 Zrotation Yrotation Xrotation
								End Site
								{
									OFFSET 0.000000 0.000000 0.000000
								}
							}
						}
					}
				}
				JOINT rclavicle
				{
					OFFSET -0.082954 0.112472 -0.023707
					CHANNELS 3 Zrotation Yrotation Xrotation
					JOINT rshoulder
					{
						OFFSET -0.113228 0.046853 -0.008472
						CHANNELS 3 Zrotation Yrotation Xrotation
						JOINT relbow
						{
							OFFSET -0.260127 -0.014369 -0.031269
							CHANNELS 3 Zrotation Yrotation Xrotation
							JOINT rwrist
							{
								OFFSET -0.269108 0.006794 -0.006027
								CHANNELS 3 Zrotation Yrotation Xrotation
								End Site
								{
									OFFSET 0.000000 0.000000 0.000000
								}
							}
						}
					}
				}
			}
		}
	}
}
MOTION
Frames: 13
Frame Time: 0.033333
-0.037010 0.293745 0.942132 65.472015 -1.843984 85.988667 3.656409 9.021408 -16.437129 4.196613 18.435151 44.321533 1.690302 5.310687 -20.699858 0.000000 -0.000000 0.000000 0.287563 6.047672 -25.443436 -6.045754 7.112477 44.138717 0.961786 1.823032 -14.227994 0.000000 -0.000000 0.000000 1.843975 -1.243295 32.225561 -2.645895 -3.886867 9.045305 0.238951 0.768713 1.050192 -8.468936 -5.342858 11.440377 9.485889 6.924814 -10.422986 0.880882 -37.602327 -8.582536 -47.816101 -28.540548 -2.391487 140.567210 -53.861144 -104.826476 -23.025033 -0.622771 -11.080982 -18.024639 37.791851 -14.263244 55.552931 43.538796 -3.756262 -129.785158 44.898118 -75.339405 26.725654 -25.624689 34.753202 
-0.036254 0.293985 0.945033 65.388476 -1.868970 86.166551 3.539686 8.768686 -16.077769 4.110756 18.685897 43.293564 1.459838 5.259655 -20.240277 0.000000 -0.000000 0.000000 0.169457 5.931768 -25.121879 -6.192574 6.964562 43.132851 1.220613 2.275082 -13.771894 0.000000 -0.000000 0.000000 2.193920 -1.635866 32.279545 -3.023793 -3.620278 9.129747 0.102196 0.792530 0.572496 -8.520217 -5.814114 11.159144 9.487403 7.124838 -10.146130 0.207973 -37.033280 -8.147166 -48.938541 -27.895272 -1.114862 143.622246 -52.839681 -108.043818 -23.877951 -1.458795 -11.815809 -18.114545 37.877461 -14.155689 54.323627 43.833329 -4.808634 -124.537664 45.328517 -71.362627 26.313330 -26.533554 36.707419 
-0.036215 0.293888 0.948922 65.188304 -1.888643 86.369476 3.516539 8.696043 -15.552288 3.770019 18.917486 41.795273 1.083438 5.232039 -19.398245 0.000000 -0.000000 0.000000 0.126465 5.812375 -24.781618 -6.213209 6.923030 41.870642 1.518357 2.553951 -13.182652 0.000000 -0.000000 0.000000 2.260312 -1.775375 32.481991 -3.280306 -3.292656 9.195865 0.134531 0.888683 0.001403 -8.431991 -5.990835 10.638553 9.411872 7.210023 -9.807925 0.203434 -36.330726 -8.539221 -49.370459 -27.771854 -0.168896 145.438856 -51.858659 -110.201005 -24.332895 -2.305440 -12.351587 -17.946928 37.780859 -14.030612 54.294120 43.424544 -4.738203 -119.205973 45.504278 -67.068739 25.972426 -27.342591 38.757724 
-0.036422 0.293936 0.952557 65.243685 -1.823437 86.656501 3.548428 8.642136 -15.262609 3.468297 18.961320 40.532117 0.302278 5.017672 -18.596034 0.000000 -0.000000 0.000000 0.064362 5.484497 -24.541540 -6.374113 6.512082 40.688165 1.802647 3.223869 -12.624929 0.000000 -0.000000 0.000000 2.315813 -1.824634 32.665771 -3.358614 -3.280439 9.359142 0.202707 1.065845 -0.741841 -8.316904 -5.713962 10.108075 9.469739 6.766207 -9.510278 1.113894 -35.885875 -9.611758 -49.665919 -27.958107 0.493693 146.083408 -50.730044 -110.838026 -23.839409 -2.784400 -12.169256 -17.540833 37.408898 -13.932402 55.721212 42.382779 -3.737491 -115.980514 45.668658 -64.131896 25.841253 -27.968170 40.283436 
-0.036725 0.293460 0.955134 65.594367 -1.822960 86.963300 3.530972 8.508410 -15.257683 3.244787 18.817268 39.585559 0.035187 4.912283 -17.799869 0.000000 -0.000000 0.000000 -0.079641 5.120764 -24.384152 -6.422211 6.125111 39.779092 2.018690 3.641435 -12.180442 0.000000 -0.000000 0.000000 2.132167 -1.641118 32.618247 -3.133380 -3.562585 9.540997 0.418848 1.155012 -1.189426 -8.233136 -5.170499 9.514227 9.485371 6.207157 -9.262239 2.432659 -35.664808 -10.583741 -48.985844 -28.712745 -0.007291 145.757777 -49.890657 -110.145623 -22.877676 -3.193237 -11.796245 -16.991062 36.922965 -13.633307 57.909079 41.078137 -2.480059 -115.502183 46.173685 -62.792853 27.574983 -28.486253 39.143058 
-0.037007 0.291784 0.957122 65.628483 -1.721720 86.949629 3.762364 8.762204 -15.021343 3.057576 18.547727 39.087771 -0.127384 4.814766 -17.175639 0.000000 -0.000000 0.000000 0.078704 5.214954 -23.972276 -6.407756 5.943643 39.174571 2.109025 3.662857 -11.975057 0.000000 -0.000000 0.000000 1.685885 -1.233395 32.855095 -2.749160 -3.693389 9.557478 0.733276 1.254998 -1.305926 -8.171650 -4.270796 9.014483 9.405105 5.405430 -9.274555 4.038437 -35.447145 -11.765260 -47.639710 -29.469785 -1.073939 144.095680 -49.907213 -108.378049 -21.421061 -3.599343 -11.514405 -16.453662 36.328033 -13.427543 60.408125 39.401886 -0.784392 -116.885100 46.953945 -63.981360 29.604201 -27.260116 35.889479 
-0.036732 0.290308 0.958791 66.061237 -1.578272 86.805397 3.788007 8.848970 -14.837334 3.066231 17.843378 38.791157 -0.411486 4.770107 -16.669038 0.000000 -0.000000 0.000000 0.228333 4.850556 -23.375256 -6.383559 5.713980 38.568573 2.108999 3.722999 -11.860418 0.000000 -0.000000 0.000000 1.615124 -0.978716 32.968670 -2.378714 -4.118176 9.654066 0.907179 1.348841 -1.330719 -8.357947 -3.509530 9.070029 9.414709 4.832848 -9.330116 5.471330 -35.403311 -12.768828 -45.870508 -30.279699 -2.635840 140.604123 -51.275162 -105.384928 -20.689087 -3.528221 -11.325850 -15.740145 35.755057 -12.969812 61.844775 37.871586 0.189284 -119.972427 47.897716 -66.905126 32.276272 -25.975807 32.331730 
-0.036976 0.289117 0.960147 66.199037 -1.519544 86.818691 3.737648 8.858172 -14.839038 3.126763 17.365318 38.570502 -0.399316 4.938126 -16.164007 0.000000 -0.000000 0.000000 0.310104 4.586421 -23.116008 -6.197418 5.779655 38.066524 2.185042 3.638522 -11.544584 0.000000 -0.000000 0.000000 1.455306 -0.649493 32.860710 -2.120036 -4.408270 10.079817 1.089874 1.376377 -1.382810 -8.698232 -3.093867 9.106725 9.467069 4.564386 -9.529646 6.935271 -35.282692 -13.633044 -44.004612 -30.587757 -4.351420 138.100843 -52.238424 -103.385479 -21.751018 -2.399434 -12.200368 -15.520625 35.321825 -12.748563 62.172044 37.046842 0.440615 -124.026388 48.317708 -70.988610 35.201053 -24.841294 29.014993 
-0.037900 0.288866 0.961367 66.174160 -1.289315 87.065290 3.897152 8.882168 -15.215969 3.358219 17.082579 38.632289 -0.892090 4.758726 -15.788647 0.000000 -0.000000 0.000000 0.508362 4.511775 -23.208565 -6.158893 5.590045 37.572838 2.235392 3.887983 -11.146813 0.000000 -0.000000 0.000000 1.196258 -0.340818 32.643456 -1.688746 -4.591511 10.271354 1.488833 1.374028 -1.126763 -9.068977 -2.725001 9.381384 9.290640 4.460581 -10.113687 7.735618 -35.263954 -13.941371 -42.322421 -30.011687 -5.587742 138.898393 -51.198358 -104.093422 -24.164766 -2.016548 -12.147095 -16.114541 35.097305 -13.243762 61.768227 36.444778 0.188481 -128.109978 47.572525 -75.411125 37.919045 -23.472732 26.092964 
-0.038746 0.289440 0.961934 65.745964 -1.273116 87.920476 3.825430 9.143183 -16.133624 3.535372 17.124162 38.740603 -0.828057 4.485201 -15.379793 0.000000 -0.000000 0.000000 0.531122 4.490828 -24.016415 -6.213163 5.747368 37.185474 2.685924 4.285747 -10.645077 0.000000 -0.000000 0.000000 0.961223 -0.344870 34.429414 -1.721896 -4.184789 6.009258 1.823341 1.403958 -0.225548 -10.101752 -3.459056 10.855696 9.731378 5.482101 -10.257086 7.771715 -34.360376 -13.381114 -42.435687 -29.211861 -5.369367 142.332105 -50.073831 -107.430542 -22.533857 -2.351625 -12.957615 -17.008504 34.552665 -13.237635 62.508007 35.687588 0.563439 -133.379608 45.897019 -80.286145 37.780425 -23.544505 26.657982 
-0.040742 0.290283 0.961755 65.226211 -1.426094 87.897134 3.980980 8.691918 -16.014658 3.530350 17.867375 38.686963 -1.046982 4.257849 -15.324061 0.000000 -0.000000 0.000000 0.310916 4.988527 -24.254943 -6.394803 5.369462 37.275213 2.755697 4.802353 -10.420980 0.000000 -0.000000 0.000000 0.888150 -0.498774 33.403034 -2.225386 -4.483138 9.696069 1.140901 2.175103 -1.542569 -9.103684 -2.571332 9.806585 9.510827 4.292530 -10.318773 9.234109 -33.510575 -14.967662 -42.757669 -28.326040 -4.359325 145.087061 -47.556758 -110.360827 -22.597380 -4.628026 -13.657847 -17.927940 34.086763 -14.675009 61.884312 35.792638 0.645968 -137.053725 44.058327 -82.991847 36.896420 -23.676076 27.651153 
-0.041532 0.291002 0.960153 64.993021 -1.550357 88.550962 3.858285 8.424952 -16.897549 3.894167 18.371403 39.250463 -0.915703 3.947384 -15.717578 0.000000 -0.000000 0.000000 0.172602 5.295508 -25.321969 -6.755408 5.166169 37.801888 3.052706 5.226093 -10.405919 0.000000 -0.000000 0.000000 0.843583 -0.316118 34.318346 -2.239526 -3.952183 6.995488 1.309239 1.930863 -0.603156 -9.617104 -3.217418 10.734835 9.646810 4.769917 -10.665579 8.459492 -32.994257 -14.090744 -44.594677 -28.482219 -3.166607 149.093326 -45.076838 -113.414331 -23.547122 -4.818910 -13.307269 -18.341891 33.008467 -14.686131 62.777076 35.627383 0.987945 -140.774985 42.517207 -86.424251 37.093612 -23.633708 27.794098 
-0.042641 0.291098 0.956573 65.159407 -1.733650 88.351031 3.817216 8.014474 -17.062819 4.248129 18.848186 40.141573 -0.614296 3.747892 -16.699080 0.000000 -0.000000 0.000000 0.011932 5.671407 -25.828363 -7.077010 4.832759 39.142997 2.834795 5.325222 -11.059636 0.000000 -0.000000 0.000000 0.901467 -0.585438 34.544701 -2.555984 -4.015517 7.746105 1.004409 2.150826 -0.944887 -9.427792 -3.181437 10.508075 9.564994 4.644282 -10.638906 8.166585 -32.845828 -14.100220 -47.310011 -28.384317 -1.586527 151.406657 -42.841655 -114.725180 -23.967082 -5.119517 -13.033451 -18.570871 32.836533 -15.085050 64.029499 35.549828 1.567557 -143.295124 40.941370 -87.978164 36.100961 -23.849153 29.167995 
